# xmcd
#
# Track frame offsets:
#	150
#	12985
#	25870
#	39112
#	50600
#	63172
#	74625
#	86840
#	99605
#	111065
#	125510
#	137580
#	151030
#
# Disc length: 2180 seconds
#
# Revision: 2
# Processed by: cddbd v1.4PL0 Copyright (c) Steve Scherf et al.
# Submitted via: audiograbber 1.82.02
#
DISCID=a608820d
DTITLE=Los Sepultureros - Sabor De Cumbia
DYEAR=1992
DGENRE=Cumbia
TTITLE0=El Ropavejero
TTITLE1=Senorita Cumbia
TTITLE2=Cumbia Mexicana
TTITLE3=La Viudita
TTITLE4=Baila mi cumbia
TTITLE5=Mi Papaito
TTITLE6=Nino Cumbiambero
TTITLE7=Sique Tu Camino
TTITLE8=Tu Seras Para Mi
TTITLE9=Amame Tiernamenta
TTITLE10=Vamos a La Escuela
TTITLE11=Tablita Ouija 
TTITLE12=La Secretaria Bilingue
EXTD=Enviado por: Alfredo Armendariz de Alfred's Sound Systems de Nuevo Laredo,
EXTD=Tam. Mx 88250
EXTT0=
EXTT1=
EXTT2=
EXTT3=
EXTT4=
EXTT5=
EXTT6=
EXTT7=
EXTT8=
EXTT9=
EXTT10=
EXTT11=
EXTT12=
PLAYORDER=
